<svg xmlns="http://www.w3.org/2000/svg" width="512" height="512" viewBox="0 0 512 512" version="1.1">
	<path d="M 331.105 79.115 C 311.871 81.703, 287.091 90.329, 270.846 100.093 C 240.065 118.592, 215.754 146.906, 203.522 178.500 C 195.915 198.150, 192.659 215.711, 192.677 237 C 192.699 262.609, 196.993 282.171, 207.547 304.748 C 233.256 359.737, 289.626 396, 349.398 396 L 362.596 396 380.855 423.500 L 399.114 451 434.116 451 C 461.842 451, 468.965 450.740, 468.384 449.750 C 467.980 449.063, 458.166 434.355, 446.575 417.067 C 434.984 399.779, 424.714 384.439, 423.754 382.978 L 422.008 380.323 430.754 375.142 C 444.251 367.146, 452.526 360.638, 464.528 348.580 C 523.224 289.606, 526.174 195.820, 471.324 132.500 C 448.887 106.598, 417.530 88.467, 382.177 80.955 C 370.817 78.541, 342.859 77.534, 331.105 79.115 M 108.378 116.589 C 107.211 117.406, 98.682 123.232, 89.424 129.537 L 72.592 141 141.048 141 L 209.503 141 211.988 136.317 C 213.354 133.742, 218.015 127.892, 222.345 123.317 L 230.218 115 170.359 115.052 C 119.107 115.097, 110.195 115.318, 108.378 116.589 M 337.814 140.008 C 327.938 141.579, 319.760 144.041, 311.308 147.989 C 284.157 160.672, 264.549 183.724, 256.804 212.067 C 253.687 223.476, 253.469 249.604, 256.402 260.500 C 269.240 308.207, 313.974 339.402, 361.888 334.060 C 384.185 331.574, 403.282 322.533, 419.726 306.677 C 458.775 269.022, 459.273 206.321, 420.825 168.246 C 416.796 164.256, 411.250 159.363, 408.500 157.372 C 400.840 151.829, 384.458 144.320, 375 142.019 C 365.285 139.655, 346.439 138.636, 337.814 140.008 M 2.550 171.893 C 3.072 172.384, 11.571 178.462, 21.436 185.400 L 39.372 198.013 108.852 197.757 L 178.333 197.500 179.730 190.589 C 180.498 186.787, 182.420 180.825, 184 177.339 L 186.875 171 94.237 171 C 39.840 171, 1.992 171.369, 2.550 171.893 M 308.392 185.605 C 301.241 202.719, 301.419 275.093, 308.647 289.250 C 309.790 291.488, 310.728 292, 313.688 292 C 325.029 292, 380.294 267.174, 406.161 250.459 C 414.640 244.981, 421 239.246, 421 237.080 C 421 231.396, 391.556 213.263, 357 197.667 C 335.622 188.019, 321.889 182.947, 315.301 182.267 L 310.014 181.722 308.392 185.605 M 56.419 238.686 C 47.663 244.563, 38.745 250.638, 36.600 252.186 L 32.700 255 103.457 255 C 167.567 255, 174.157 254.851, 173.607 253.418 C 173.273 252.548, 173 246.473, 173 239.918 L 173 228 122.669 228 L 72.337 228 56.419 238.686" stroke="none" fill="black" fill-rule="evenodd"/>
</svg>